<svg width="25" height="25" viewBox="0 0 25 25" fill="none" xmlns="http://www.w3.org/2000/svg">
<g clip-path="url(#clip0)">
<path d="M8.4275 2.27273C8.4275 1.52747 9.00912 0.982801 9.75438 0.982801H15.209C15.954 0.982801 16.5356 1.52747 16.5356 2.27273V3.6855H17.5184V2.27273C17.5184 0.98568 16.496 0 15.209 0H9.75438C8.46733 0 7.4447 0.98568 7.4447 2.27273V3.6855H8.4275V2.27273Z" fill="#DCDCDC"/>
<path d="M6.67092 25H18.2925C19.413 25 20.2826 24.0143 20.2826 22.7887V7.6167H4.6806V22.7887C4.6806 24.0143 5.55015 25 6.67092 25V25ZM15.6143 9.96309C15.6143 9.69171 15.8343 9.47169 16.1057 9.47169C16.377 9.47169 16.5971 9.69171 16.5971 9.96309V21.5724C16.5971 21.8438 16.377 22.0638 16.1057 22.0638C15.8343 22.0638 15.6143 21.8438 15.6143 21.5724V9.96309ZM11.9902 9.96309C11.9902 9.69171 12.2102 9.47169 12.4816 9.47169C12.753 9.47169 12.973 9.69171 12.973 9.96309V21.5724C12.973 21.8438 12.753 22.0638 12.4816 22.0638C12.2102 22.0638 11.9902 21.8438 11.9902 21.5724V9.96309ZM8.36611 9.96309C8.36611 9.69171 8.58613 9.47169 8.85751 9.47169C9.12888 9.47169 9.34891 9.69171 9.34891 9.96309V21.5724C9.34891 21.8438 9.12888 22.0638 8.85751 22.0638C8.58613 22.0638 8.36611 21.8438 8.36611 21.5724V9.96309Z" fill="#DCDCDC"/>
<path d="M4.17693 6.63388H20.7862C21.4647 6.63388 22.0147 6.08393 22.0147 5.40538C22.0147 4.72683 21.4647 4.17688 20.7862 4.17688H4.17693C3.49837 4.17688 2.94843 4.72683 2.94843 5.40538C2.94843 6.08393 3.49837 6.63388 4.17693 6.63388Z" fill="#DCDCDC"/>
</g>
<defs>
<clipPath id="clip0">
<rect width="25" height="25" fill="white"/>
</clipPath>
</defs>
</svg>
