<svg width="30" height="30" viewBox="0 0 30 30" fill="none" xmlns="http://www.w3.org/2000/svg">
<g clip-path="url(#clip0)">
<path d="M11.0714 0H2.5C1.11929 0 0 1.11929 0 2.5V11.0714C0 12.4521 1.11929 13.5714 2.5 13.5714H11.0714C12.4521 13.5714 13.5714 12.4521 13.5714 11.0714V2.5C13.5714 1.11929 12.4521 0 11.0714 0Z" fill="#3B026D"/>
<path d="M27.5 0H18.9286C17.5479 0 16.4286 1.11929 16.4286 2.5V11.0714C16.4286 12.4521 17.5479 13.5714 18.9286 13.5714H27.5C28.8807 13.5714 30 12.4521 30 11.0714V2.5C30 1.11929 28.8807 0 27.5 0Z" fill="#3B026D"/>
<path d="M27.5 16.4286H18.9286C17.5479 16.4286 16.4286 17.5479 16.4286 18.9286V27.5C16.4286 28.8807 17.5479 30 18.9286 30H27.5C28.8807 30 30 28.8807 30 27.5V18.9286C30 17.5479 28.8807 16.4286 27.5 16.4286Z" fill="#3B026D"/>
<path d="M11.0714 16.4286H2.5C1.11929 16.4286 0 17.5479 0 18.9286V27.5C0 28.8807 1.11929 30 2.5 30H11.0714C12.4521 30 13.5714 28.8807 13.5714 27.5V18.9286C13.5714 17.5479 12.4521 16.4286 11.0714 16.4286Z" fill="#3B026D"/>
<path fill-rule="evenodd" clip-rule="evenodd" d="M27.0615 4.99432C27.3615 4.60297 27.2874 4.04252 26.8961 3.74251C26.5047 3.4425 25.9443 3.51655 25.6443 3.9079L22.3054 8.26339L20.4655 6.42352C20.1168 6.07483 19.5515 6.07483 19.2028 6.42352C18.8541 6.7722 18.8541 7.33754 19.2028 7.68622L21.7282 10.2116C21.9862 10.4696 22.3628 10.5367 22.6825 10.4129C22.8624 10.3627 23.028 10.2559 23.1504 10.0963L27.0615 4.99432Z" fill="white"/>
</g>
<defs>
<clipPath id="clip0">
<rect width="30" height="30" fill="white"/>
</clipPath>
</defs>
</svg>
