<svg width="35" height="35" viewBox="0 0 35 35" fill="none" xmlns="http://www.w3.org/2000/svg">
<path d="M31.3543 1.504H3.64588C1.63555 1.504 0 3.13955 0 5.14988V24.2609C0 26.1871 1.63555 27.7538 3.64588 27.7538H12.8156L11.1626 32.129H9.47903C9.07622 32.129 8.75004 32.4555 8.75004 32.858C8.75004 33.2608 9.07622 33.5873 9.47903 33.5873H25.5208C25.924 33.5873 26.2501 33.2608 26.2501 32.858C26.2501 32.4555 25.924 32.129 25.5208 32.129H23.8376L22.1846 27.7538H31.3543C33.3643 27.7538 34.9999 26.1871 34.9999 24.2609V5.14988C34.9999 3.13955 33.3643 1.504 31.3543 1.504V1.504ZM22.2781 32.129H12.7221L14.3748 27.7538H20.6254L22.2781 32.129ZM33.5416 24.2609C33.5416 25.3828 32.5606 26.2955 31.3543 26.2955H3.64588C2.43962 26.2955 1.45829 25.3828 1.45829 24.2609V21.9207H33.5416V24.2609ZM33.5416 20.4624H1.45829V5.14988C1.45829 3.94362 2.43962 2.96229 3.64588 2.96229H31.3543C32.5606 2.96229 33.5416 3.94362 33.5416 5.14988V20.4624Z" fill="white"/>
<path d="M16.0418 24.8372H18.9584C19.3615 24.8372 19.6874 24.5108 19.6874 24.1079C19.6874 23.7054 19.3615 23.3789 18.9584 23.3789H16.0418C15.6387 23.3789 15.3125 23.7054 15.3125 24.1079C15.3125 24.5108 15.6387 24.8372 16.0418 24.8372Z" fill="white"/>
</svg>
