<svg width="35" height="35" viewBox="0 0 35 35" fill="none" xmlns="http://www.w3.org/2000/svg">
<path d="M30.3333 4.375H27.4166C27.0944 4.375 26.8333 4.63613 26.8333 4.95831V7.29162C26.8333 7.6138 27.0945 7.87493 27.4166 7.87493H30.3333C30.6555 7.87493 30.9166 7.6138 30.9166 7.29162V4.95831C30.9167 4.6362 30.6555 4.375 30.3333 4.375ZM29.75 6.70831H28V5.54169H29.75V6.70831Z" fill="white"/>
<path d="M33.25 9.04169V3.79169C33.249 2.82563 32.4661 2.04271 31.5 2.04169H1.75C0.783945 2.04271 0.00102539 2.82563 0 3.79169V14.875C0.00102539 15.8411 0.783945 16.624 1.75 16.625H2.33331V28.9825C1.63611 29.2281 1.16895 29.8858 1.16669 30.625V32.375C1.16669 32.6972 1.42782 32.9583 1.75 32.9583H6.41669C6.73887 32.9583 7 32.6972 7 32.375V30.625C6.99774 29.8858 6.53051 29.2281 5.83331 28.9825V28.2916H27.4166V28.9825C26.7195 29.2281 26.2523 29.8858 26.25 30.625V32.375C26.25 32.6972 26.5112 32.9583 26.8333 32.9583H31.5C31.8222 32.9583 32.0833 32.6972 32.0833 32.375V30.625C32.0811 29.8858 31.6138 29.2281 30.9166 28.9825V16.625H31.4999C32.466 16.624 33.2489 15.8411 33.2499 14.875V14.2917C34.216 14.2907 34.9989 13.5077 34.9999 12.5417V10.7917C34.999 9.82563 34.2161 9.04271 33.25 9.04169ZM1.75 15.4583C1.42803 15.4579 1.1671 15.197 1.16669 14.875V3.79169C1.1671 3.46971 1.42803 3.20879 1.75 3.20838H4.66669V15.4584H1.75V15.4583ZM4.66669 16.625V28.875H3.5V16.625H4.66669ZM5.83331 31.7917H2.33331V30.625C2.33372 30.303 2.59465 30.0421 2.91662 30.0417H5.25C5.57197 30.0421 5.8329 30.303 5.83331 30.625V31.7917ZM25.6667 3.20831H31.5C31.822 3.20872 32.0829 3.46965 32.0833 3.79162V9.04162H25.6666V3.20831H25.6667ZM5.83331 3.20831H24.5V6.125H5.83331V3.20831ZM5.83331 7.29169H24.5V10.2084H23.3333V9.04169C23.3333 8.71951 23.0721 8.45838 22.75 8.45838H7.58331C7.26113 8.45838 7 8.71951 7 9.04169V10.2084H5.83331V7.29169ZM24.5 11.375V15.4583H23.3333V11.375H24.5ZM22.1667 9.625V21.875C22.1663 22.197 21.9054 22.4579 21.5834 22.4583H8.75C8.42803 22.4579 8.1671 22.197 8.16669 21.875V9.625H22.1667ZM5.83331 11.375H7V15.4583H5.83331V11.375ZM5.83331 16.625H7V21.875C7.00103 22.8411 7.78395 23.624 8.75 23.625H21.5833C22.5494 23.624 23.3323 22.8411 23.3333 21.875V16.625H27.4166V24.7917H5.83331V16.625ZM5.83331 27.125V25.9583H27.4166V27.125H5.83331ZM30.9167 31.7917H27.4167V30.625C27.4171 30.303 27.678 30.0421 28 30.0417H30.3333C30.6553 30.0421 30.9162 30.303 30.9166 30.625V31.7917H30.9167ZM28.5833 28.875V16.625H29.75V28.875H28.5833ZM32.0833 14.875C32.0829 15.197 31.822 15.4579 31.5 15.4583H25.6667V14.2916H32.0834V14.875H32.0833ZM33.8333 12.5417C33.8329 12.8637 33.572 13.1246 33.25 13.125H25.6667V10.2083H33.25C33.572 10.2087 33.8329 10.4696 33.8333 10.7916V12.5417Z" fill="white"/>
<path d="M11.0366 11.1531C10.9833 11.0067 10.868 10.8914 10.7216 10.8381C10.5795 10.78 10.4202 10.78 10.2782 10.8381C10.132 10.8917 10.0168 11.0069 9.96317 11.1531C9.9333 11.2233 9.91751 11.2987 9.91669 11.375C9.91887 11.5294 9.9793 11.6773 10.0859 11.7892C10.1426 11.8406 10.2076 11.8819 10.2782 11.9116C10.4195 11.9739 10.5804 11.9739 10.7216 11.9116C10.7922 11.8819 10.8574 11.8405 10.9142 11.7891C11.0206 11.6772 11.0811 11.5294 11.0834 11.375C11.0824 11.2987 11.0666 11.2233 11.0366 11.1531Z" fill="white"/>
<path d="M13.3699 11.1531C13.3403 11.0825 13.2988 11.0175 13.2474 10.9608C13.0136 10.7449 12.6531 10.7449 12.4191 10.9608C12.3676 11.0174 12.326 11.0825 12.2964 11.1531C12.2666 11.2233 12.2508 11.2987 12.2499 11.375C12.2521 11.5294 12.3126 11.6773 12.4191 11.7892C12.4482 11.8125 12.4772 11.8359 12.5123 11.859C12.5421 11.8821 12.5756 11.8999 12.6114 11.9117C12.6446 11.9284 12.68 11.9403 12.7166 11.9467C12.7552 11.9534 12.7941 11.9573 12.8333 11.9584C12.9877 11.9561 13.1356 11.8957 13.2475 11.7892C13.2725 11.7616 13.2958 11.7323 13.3173 11.7018C13.3395 11.6693 13.3572 11.6339 13.37 11.5967C13.3868 11.5635 13.3986 11.5281 13.4051 11.4915C13.4115 11.453 13.4154 11.4141 13.4167 11.3751C13.4187 11.2984 13.4027 11.2224 13.3699 11.1531Z" fill="white"/>
<path d="M15.7033 11.1531C15.6737 11.0825 15.6322 11.0175 15.5808 10.9608C15.347 10.7449 14.9865 10.7449 14.7525 10.9608C14.701 11.0174 14.6594 11.0825 14.6298 11.1531C14.6 11.2233 14.5842 11.2987 14.5833 11.375C14.5803 11.694 14.8364 11.9552 15.1554 11.9583C15.1592 11.9584 15.1629 11.9584 15.1666 11.9583C15.4857 11.9614 15.7469 11.7052 15.75 11.3862C15.75 11.3824 15.75 11.3787 15.75 11.375C15.7491 11.2987 15.7333 11.2233 15.7033 11.1531Z" fill="white"/>
<path d="M18.0367 11.1531C18.007 11.0825 17.9656 11.0175 17.9142 10.9608C17.6803 10.7449 17.3198 10.7449 17.0858 10.9608C17.0343 11.0174 16.9927 11.0825 16.9631 11.1531C16.9333 11.2233 16.9175 11.2987 16.9167 11.375C16.9136 11.694 17.1697 11.9552 17.4888 11.9583C17.4925 11.9584 17.4963 11.9584 17.5 11.9583C17.539 11.9572 17.578 11.9533 17.6165 11.9466C17.653 11.9401 17.6884 11.9283 17.7216 11.9115C17.7588 11.8988 17.7942 11.881 17.8267 11.8588C17.8558 11.8357 17.8848 11.8124 17.9142 11.789C18.0206 11.6771 18.081 11.5293 18.0833 11.3749C18.0825 11.2987 18.0666 11.2233 18.0367 11.1531Z" fill="white"/>
<path d="M20.3699 11.1531C20.3402 11.0826 20.2988 11.0176 20.2474 10.9608C20.2181 10.9375 20.189 10.9141 20.1539 10.8908C20.1242 10.8675 20.0907 10.8497 20.0548 10.838C20.0217 10.8212 19.9863 10.8095 19.9497 10.8033C19.7576 10.7641 19.5586 10.8231 19.419 10.9608C19.3675 11.0174 19.3259 11.0825 19.2962 11.1531C19.2664 11.2233 19.2506 11.2987 19.2498 11.375C19.252 11.5294 19.3124 11.6774 19.419 11.7892C19.4481 11.8125 19.4771 11.8359 19.5064 11.859C19.5389 11.8811 19.5742 11.8988 19.6112 11.9117C19.6444 11.9285 19.6798 11.9403 19.7164 11.9468C19.755 11.9532 19.794 11.9571 19.8331 11.9585C19.8722 11.9574 19.9111 11.9535 19.9496 11.9468C19.9862 11.9403 20.0216 11.9285 20.0547 11.9117C20.0906 11.9001 20.1241 11.8822 20.1539 11.859C20.1889 11.8359 20.218 11.8126 20.2473 11.7892C20.3538 11.6773 20.4142 11.5294 20.4165 11.3751C20.4157 11.2987 20.3998 11.2233 20.3699 11.1531Z" fill="white"/>
<path d="M12.0855 12.7109C11.8581 12.4808 11.4873 12.4788 11.2572 12.7062C11.1454 12.8168 11.0827 12.9677 11.0833 13.125C11.0842 13.1641 11.0881 13.203 11.095 13.2415C11.1012 13.278 11.113 13.3135 11.1297 13.3466C11.1426 13.3838 11.1603 13.4192 11.1824 13.4517C11.2057 13.4808 11.2291 13.5099 11.2525 13.5392C11.2801 13.5643 11.3093 13.5876 11.3399 13.609C11.3724 13.6311 11.4077 13.6488 11.4447 13.6617C11.4779 13.6784 11.5133 13.6903 11.5499 13.6967C11.5885 13.7032 11.6275 13.7071 11.6666 13.7084C11.7057 13.7073 11.7446 13.7034 11.7831 13.6967C11.8197 13.6903 11.8551 13.6784 11.8883 13.6617C11.9254 13.6489 11.9608 13.6311 11.9934 13.609C12.0239 13.5875 12.0531 13.5642 12.0808 13.5392C12.3108 13.3117 12.313 12.9409 12.0855 12.7109Z" fill="white"/>
<path d="M14.4188 12.7109C14.1914 12.4808 13.8206 12.4788 13.5905 12.7062C13.4787 12.8168 13.416 12.9677 13.4166 13.125C13.4175 13.1641 13.4215 13.203 13.4283 13.2415C13.4345 13.278 13.4463 13.3135 13.463 13.3466C13.4759 13.3838 13.4936 13.4192 13.5158 13.4517C13.5374 13.4823 13.5607 13.5115 13.5858 13.5392C13.6134 13.5643 13.6426 13.5876 13.6733 13.609C13.7057 13.6311 13.741 13.6488 13.778 13.6617C13.8112 13.6784 13.8466 13.6903 13.8832 13.6967C13.9218 13.7034 13.9608 13.7073 14 13.7084C14.039 13.7071 14.078 13.7032 14.1165 13.6967C14.1531 13.6903 14.1885 13.6784 14.2216 13.6617C14.2588 13.6489 14.2942 13.6311 14.3268 13.609C14.3573 13.5875 14.3865 13.5642 14.4142 13.5392C14.6442 13.3117 14.6463 12.9409 14.4188 12.7109Z" fill="white"/>
<path d="M16.7522 12.7109C16.5247 12.4808 16.1539 12.4788 15.9239 12.7062C15.812 12.8168 15.7493 12.9677 15.7499 13.125C15.7508 13.1641 15.7548 13.203 15.7616 13.2415C15.7679 13.278 15.7796 13.3135 15.7964 13.3466C15.8091 13.3838 15.8269 13.4192 15.8491 13.4517C15.8707 13.4823 15.894 13.5115 15.9191 13.5392C16.031 13.6457 16.1789 13.706 16.3333 13.7084C16.3724 13.7073 16.4113 13.7034 16.4498 13.6967C16.4864 13.6902 16.5218 13.6784 16.5549 13.6616C16.5921 13.6488 16.6275 13.6311 16.66 13.6089C16.6906 13.5874 16.7198 13.5641 16.7475 13.5391C16.9776 13.3117 16.9796 12.9409 16.7522 12.7109Z" fill="white"/>
<path d="M19.0808 12.7108C19.0241 12.6593 18.9589 12.6177 18.8882 12.588C18.7474 12.5239 18.5856 12.5239 18.4448 12.588C18.3734 12.6163 18.3081 12.658 18.2525 12.7108C18.0269 12.9408 18.0269 13.3091 18.2525 13.5391V13.5392C18.4812 13.7679 18.8521 13.7679 19.0808 13.5392C19.3095 13.3105 19.3095 12.9395 19.0808 12.7108Z" fill="white"/>
</svg>
