<svg width="35" height="35" viewBox="0 0 35 35" fill="none" xmlns="http://www.w3.org/2000/svg">
<path d="M32.2778 9.15381H28.5657V2.40161C28.5657 1.75733 28.0433 1.23492 27.399 1.23492H7.60102C6.95673 1.23492 6.43433 1.75726 6.43433 2.40161V9.15381H2.72221C1.22117 9.15381 0 10.3751 0 11.8761V23.6135C0 25.1146 1.22117 26.3357 2.72221 26.3357H6.43453V32.5984C6.43453 33.2427 6.95687 33.7651 7.60122 33.7651H27.3988C28.0431 33.7651 28.5655 33.2428 28.5655 32.5984V26.3357H32.2778C33.7788 26.3357 35 25.1146 35 23.6135V11.8761C35 10.3751 33.7788 9.15381 32.2778 9.15381ZM8.76764 3.5683H26.2323V9.15381H8.76764V3.5683ZM26.2321 31.4317H8.76791C8.76791 31.2037 8.76791 22.1688 8.76791 21.8868H26.2322C26.2321 22.1759 26.2321 31.2125 26.2321 31.4317ZM32.6667 23.6136C32.6667 23.828 32.4922 24.0025 32.2778 24.0025H28.5655V20.7203C28.5655 20.076 28.0431 19.5536 27.3988 19.5536H7.60122C6.95693 19.5536 6.43453 20.0759 6.43453 20.7203V24.0025H2.72221C2.50776 24.0025 2.33331 23.828 2.33331 23.6136V11.8762C2.33331 11.6617 2.50776 11.4873 2.72221 11.4873C3.6173 11.4873 31.4038 11.4873 32.2778 11.4873C32.4922 11.4873 32.6667 11.6617 32.6667 11.8762V23.6136Z" fill="white"/>
<path d="M27.399 13.6711H24.4293C23.785 13.6711 23.2626 14.1934 23.2626 14.8377C23.2626 15.4821 23.7849 16.0044 24.4293 16.0044H27.399C28.0433 16.0044 28.5657 15.4821 28.5657 14.8377C28.5657 14.1934 28.0434 13.6711 27.399 13.6711Z" fill="white"/>
<path d="M22.5556 27.3324H12.4444C11.8001 27.3324 11.2777 27.8547 11.2777 28.4991C11.2777 29.1434 11.8001 29.6658 12.4444 29.6658H22.5555C23.1998 29.6658 23.7222 29.1434 23.7222 28.4991C23.7222 27.8547 23.1999 27.3324 22.5556 27.3324Z" fill="white"/>
<path d="M22.5556 23.6527H12.4444C11.8001 23.6527 11.2777 24.1751 11.2777 24.8194C11.2777 25.4638 11.8001 25.9861 12.4444 25.9861H22.5555C23.1998 25.9861 23.7222 25.4638 23.7222 24.8194C23.7222 24.1751 23.1999 23.6527 22.5556 23.6527Z" fill="white"/>
</svg>
