<svg width="35" height="35" viewBox="0 0 35 35" fill="none" xmlns="http://www.w3.org/2000/svg">
<path d="M33.9063 24.6094H33.3594V23.5156H33.9063C34.1272 23.5156 34.3268 23.3822 34.4116 23.1782C34.4963 22.9737 34.4493 22.7385 34.2929 22.5821L12.4179 0.707094C12.2041 0.493265 11.8584 0.493265 11.6446 0.707094L9.45711 2.89459C9.24328 3.10842 9.24328 3.45405 9.45711 3.66788L29.1446 23.3554C29.2469 23.4582 29.3863 23.5156 29.5313 23.5156H30.0781V24.6094H25.7031V22.9687C25.7031 22.6669 25.4581 22.4219 25.1563 22.4219H2.1875C1.88563 22.4219 1.64063 22.6669 1.64063 22.9687V24.6094H1.09375C0.791875 24.6094 0.546875 24.8544 0.546875 25.1562V31.7187C0.546875 32.0206 0.791875 32.2656 1.09375 32.2656H1.96109L3.98836 34.2929C4.09063 34.3957 4.23008 34.4531 4.375 34.4531H30.625C30.7699 34.4531 30.9094 34.3957 31.0116 34.2929L33.0389 32.2656H33.9063C34.2081 32.2656 34.4531 32.0206 34.4531 31.7187V25.1562C34.4531 24.8544 34.2081 24.6094 33.9063 24.6094ZM10.617 3.28124L12.0313 1.86702L32.5861 22.4219H29.7577L10.617 3.28124ZM31.1719 23.5156H32.2656V24.6094H31.1719V23.5156ZM2.73438 23.5156H24.6094V24.6094H2.73438V23.5156ZM30.3986 33.3594H4.60141L3.50766 32.2656H31.4923L30.3986 33.3594ZM33.3594 31.1719H1.64063V25.7031H33.3594V31.1719Z" fill="white"/>
<path d="M4.375 30.0781C5.27953 30.0781 6.01562 29.342 6.01562 28.4375C6.01562 27.533 5.27953 26.7969 4.375 26.7969C3.47047 26.7969 2.73438 27.533 2.73438 28.4375C2.73438 29.342 3.47047 30.0781 4.375 30.0781ZM4.375 27.8906C4.67633 27.8906 4.92188 28.1362 4.92188 28.4375C4.92188 28.7388 4.67633 28.9844 4.375 28.9844C4.07367 28.9844 3.82812 28.7388 3.82812 28.4375C3.82812 28.1362 4.07367 27.8906 4.375 27.8906Z" fill="white"/>
<path d="M8.75 30.0781C9.65453 30.0781 10.3906 29.342 10.3906 28.4375C10.3906 27.533 9.65453 26.7969 8.75 26.7969C7.84547 26.7969 7.10938 27.533 7.10938 28.4375C7.10938 29.342 7.84547 30.0781 8.75 30.0781ZM8.75 27.8906C9.05133 27.8906 9.29688 28.1362 9.29688 28.4375C9.29688 28.7388 9.05133 28.9844 8.75 28.9844C8.44867 28.9844 8.20312 28.7388 8.20312 28.4375C8.20312 28.1362 8.44867 27.8906 8.75 27.8906Z" fill="white"/>
<path d="M29.5312 30.0781H31.7188C32.0206 30.0781 32.2656 29.8331 32.2656 29.5312V27.3438C32.2656 27.0419 32.0206 26.7969 31.7188 26.7969H29.5312C29.2294 26.7969 28.9844 27.0419 28.9844 27.3438V29.5312C28.9844 29.8331 29.2294 30.0781 29.5312 30.0781ZM30.0781 27.8906H31.1719V28.9844H30.0781V27.8906Z" fill="white"/>
<path d="M10.3906 15.8593H11.4844V19.1406H10.3906V15.8593Z" fill="white"/>
<path d="M12.7354 19.3L14.923 17.1124L15.6964 17.8858L13.5088 20.0734L12.7354 19.3Z" fill="white"/>
<path d="M6.17346 17.8859L6.94686 17.1125L9.13442 19.3L8.36102 20.0734L6.17346 17.8859Z" fill="white"/>
</svg>
