<svg width="35" height="35" viewBox="0 0 35 35" fill="none" xmlns="http://www.w3.org/2000/svg">
<path d="M32.6166 8.95985H8.98871V6.94338C8.98871 6.71308 8.95412 6.49095 8.89283 6.28012L29.949 3.05181C30.5066 2.96628 30.8893 2.44494 30.8039 1.88737C30.7184 1.32979 30.1977 0.947227 29.6395 1.03248L6.62509 4.5611C6.61842 4.5611 6.61201 4.56015 6.60534 4.56015H2.38337C1.06925 4.56015 0 5.62926 0 6.94352V9.98143V12.3476V22.2326C0 23.5468 1.06925 24.616 2.38337 24.616H7.34514V32.5495C7.34514 33.3381 7.98674 33.9795 8.77516 33.9795H26.2248C27.0134 33.9795 27.6549 33.3381 27.6549 32.5495V24.616H32.6166C33.9307 24.616 35 23.5468 35 22.2326V11.3432C35 10.0291 33.9309 8.95985 32.6166 8.95985ZM2.04289 6.94338C2.04289 6.75884 2.19883 6.6029 2.38337 6.6029H6.60534C6.78988 6.6029 6.94582 6.75884 6.94582 6.94338V9.70632C6.94582 9.75303 6.95004 9.79866 6.95617 9.84374C6.95004 9.88895 6.94582 9.93458 6.94582 9.98129C6.94582 10.5454 7.40316 11.0027 7.96727 11.0027H32.6166C32.8012 11.0027 32.9571 11.1587 32.9571 11.3432V17.4675H26.2248H8.77516H2.04289V12.3475V9.98129V6.94338ZM2.38337 22.573C2.19883 22.573 2.04289 22.417 2.04289 22.2325V19.5104H7.34514V22.573H2.38337ZM25.612 31.9365H9.38803V19.5104H25.612V31.9365V31.9365ZM32.6166 22.573H27.6549V19.5104H32.9571V22.2325C32.9571 22.417 32.8012 22.573 32.6166 22.573Z" fill="white"/>
</svg>
