<svg width="35" height="35" viewBox="0 0 35 35" fill="none" xmlns="http://www.w3.org/2000/svg">
<path d="M34.9854 26.9063C34.9811 26.8625 34.9723 26.8217 34.9592 26.7794C34.9431 26.7254 34.9242 26.6773 34.8979 26.6292C34.8878 26.6117 34.8863 26.5912 34.8761 26.5753L32.0834 22.3854V7.29169C32.0834 5.68312 30.7753 4.375 29.1667 4.375H5.83331C4.22475 4.375 2.91662 5.68312 2.91662 7.29169V22.384L0.1225 26.5752C0.109375 26.5941 0.107939 26.616 0.0976855 26.635C0.0728711 26.6787 0.0553711 26.7239 0.0408105 26.7736C0.02625 26.8203 0.0175 26.8654 0.013125 26.9136C0.0116895 26.9369 0 26.9558 0 26.9792V27.7084C0 29.3169 1.30812 30.625 2.91669 30.625H32.0834C33.6919 30.625 35 29.3169 35 27.7083V26.9791C35 26.9529 34.9883 26.9311 34.9854 26.9063ZM4.375 7.29169C4.375 6.48812 5.02981 5.83338 5.83331 5.83338H29.1666C29.9702 5.83338 30.6249 6.48819 30.6249 7.29169V21.875H4.375V7.29169ZM4.03519 23.3333H30.9619L32.9058 26.25H21.1458C20.9519 26.25 20.7666 26.3273 20.6325 26.4629L20.1163 26.9792H14.8867L14.3704 26.4629C14.2334 26.3273 14.0481 26.25 13.8542 26.25H2.09125L4.03519 23.3333ZM32.0833 29.1667H2.91669C2.11312 29.1667 1.45838 28.5119 1.45838 27.7084H13.5523L14.0656 28.2246C14.2027 28.3603 14.3879 28.4376 14.5819 28.4376H20.4152C20.6091 28.4376 20.7944 28.3618 20.9314 28.2246L21.4477 27.7084H33.5416C33.5417 28.5119 32.8869 29.1667 32.0833 29.1667Z" fill="white"/>
</svg>
