<svg width="35" height="35" viewBox="0 0 35 35" fill="none" xmlns="http://www.w3.org/2000/svg">
<path d="M33.25 0H18.0833C17.1168 0 16.3333 0.783502 16.3333 1.75V8.16667H2.91667C1.30584 8.16667 0 9.4725 0 11.0833V26.25C0 27.8608 1.30584 29.1667 2.91667 29.1667H9.33333V31.5H7.58333C6.61683 31.5 5.83333 32.2835 5.83333 33.25C5.83333 34.2165 6.61683 35 7.58333 35H33.25C34.2165 35 35 34.2165 35 33.25V1.75C35 0.783502 34.2165 0 33.25 0ZM2.91667 9.33333H23.9167C24.8832 9.33333 25.6667 10.1168 25.6667 11.0833V25.0833H1.16667V11.0833C1.16667 10.1168 1.95017 9.33333 2.91667 9.33333ZM1.16667 26.25H25.6667C25.6667 27.2165 24.8832 28 23.9167 28H2.91667C1.95017 28 1.16667 27.2165 1.16667 26.25ZM10.5 29.1667H16.3333V31.5H10.5V29.1667ZM18.0833 33.8333H7.58333C7.26117 33.8333 7 33.5722 7 33.25C7 32.9278 7.26117 32.6667 7.58333 32.6667H19.25C19.5722 32.6667 19.8333 32.9278 19.8333 33.25C19.8333 33.5722 19.5722 33.8333 19.25 33.8333H18.0833ZM33.8333 33.25C33.8333 33.5722 33.5722 33.8333 33.25 33.8333H20.895C21.0841 33.2985 21.0022 32.7053 20.6754 32.2416C20.3485 31.778 19.8172 31.5016 19.25 31.5H17.5V29.1667H23.9167C25.5275 29.1667 26.8333 27.8608 26.8333 26.25V11.0833C26.8333 9.4725 25.5275 8.16667 23.9167 8.16667H17.5V1.75C17.5 1.42783 17.7612 1.16667 18.0833 1.16667H33.25C33.5722 1.16667 33.8333 1.42783 33.8333 1.75V33.25Z" fill="white"/>
<path d="M31.5 2.91666H19.8334C19.189 2.91666 18.6667 3.43899 18.6667 4.08332V5.24999C18.6667 5.89432 19.189 6.41666 19.8334 6.41666H31.5C32.1444 6.41666 32.6667 5.89432 32.6667 5.24999V4.08332C32.6667 3.43899 32.1444 2.91666 31.5 2.91666ZM19.8334 5.24999V4.08332H31.5V5.24999H19.8334Z" fill="white"/>
<path d="M30.3334 11.6667C31.2999 11.6667 32.0834 10.8832 32.0834 9.91666C32.0834 8.95016 31.2999 8.16666 30.3334 8.16666C29.3669 8.16666 28.5834 8.95016 28.5834 9.91666C28.5834 10.8832 29.3669 11.6667 30.3334 11.6667ZM30.3334 9.33333C30.6555 9.33333 30.9167 9.59449 30.9167 9.91666C30.9167 10.2388 30.6555 10.5 30.3334 10.5C30.0112 10.5 29.75 10.2388 29.75 9.91666C29.75 9.59449 30.0112 9.33333 30.3334 9.33333Z" fill="white"/>
<path d="M32.0834 14.5833C32.0834 13.6168 31.2999 12.8333 30.3334 12.8333C29.3669 12.8333 28.5834 13.6168 28.5834 14.5833C28.5834 15.5498 29.3669 16.3333 30.3334 16.3333C31.2999 16.3333 32.0834 15.5498 32.0834 14.5833ZM30.3334 15.1667C30.0112 15.1667 29.75 14.9055 29.75 14.5833C29.75 14.2612 30.0112 14 30.3334 14C30.6555 14 30.9167 14.2612 30.9167 14.5833C30.9167 14.9055 30.6555 15.1667 30.3334 15.1667Z" fill="white"/>
<path d="M22.75 30.3333C22.4279 30.3333 22.1667 30.5945 22.1667 30.9167V32.0833C22.1667 32.4055 22.4279 32.6667 22.75 32.6667C23.0722 32.6667 23.3333 32.4055 23.3333 32.0833V30.9167C23.3333 30.5945 23.0722 30.3333 22.75 30.3333Z" fill="white"/>
<path d="M25.0833 30.3333C24.7612 30.3333 24.5 30.5945 24.5 30.9167V32.0833C24.5 32.4055 24.7612 32.6667 25.0833 32.6667C25.4055 32.6667 25.6667 32.4055 25.6667 32.0833V30.9167C25.6667 30.5945 25.4055 30.3333 25.0833 30.3333Z" fill="white"/>
<path d="M27.4166 30.3333C27.0945 30.3333 26.8333 30.5945 26.8333 30.9167V32.0833C26.8333 32.4055 27.0945 32.6667 27.4166 32.6667C27.7388 32.6667 28 32.4055 28 32.0833V30.9167C28 30.5945 27.7388 30.3333 27.4166 30.3333Z" fill="white"/>
<path d="M29.75 30.3333C29.4279 30.3333 29.1667 30.5945 29.1667 30.9167V32.0833C29.1667 32.4055 29.4279 32.6667 29.75 32.6667C30.0722 32.6667 30.3333 32.4055 30.3333 32.0833V30.9167C30.3333 30.5945 30.0722 30.3333 29.75 30.3333Z" fill="white"/>
<path d="M32.0833 30.3333C31.7612 30.3333 31.5 30.5945 31.5 30.9167V32.0833C31.5 32.4055 31.7612 32.6667 32.0833 32.6667C32.4055 32.6667 32.6667 32.4055 32.6667 32.0833V30.9167C32.6667 30.5945 32.4055 30.3333 32.0833 30.3333Z" fill="white"/>
</svg>
