<svg width="35" height="35" viewBox="0 0 35 35" fill="none" xmlns="http://www.w3.org/2000/svg">
<g clip-path="url(#clip0)">
<path d="M34.551 6.53202C27.8761 -0.142998 17.0153 -0.142998 10.3404 6.53202C9.89468 6.97766 9.89468 7.70035 10.3404 8.14606C10.786 8.59169 11.5087 8.59169 11.9544 8.14606C17.7393 2.36121 27.1521 2.36121 32.937 8.14606C33.3827 8.59176 34.1053 8.59169 34.551 8.14606C34.9967 7.70035 34.9967 6.97772 34.551 6.53202Z" fill="white"/>
<path d="M31.323 9.76009C26.428 4.86529 18.4633 4.86529 13.5685 9.76009C13.1228 10.2057 13.1228 10.9284 13.5685 11.3741C14.0142 11.8199 14.7368 11.8198 15.1825 11.3741C19.1875 7.36929 25.704 7.36929 29.7089 11.3741C30.1546 11.8198 30.8773 11.8198 31.323 11.3741C31.7686 10.9284 31.7686 10.2058 31.323 9.76009Z" fill="white"/>
<path d="M22.4456 15.2134C20.5577 15.2134 19.0217 16.7494 19.0217 18.6374C19.0217 20.5253 20.5577 22.0613 22.4456 22.0613C24.3336 22.0613 25.8696 20.5253 25.8696 18.6374C25.8696 16.7494 24.3336 15.2134 22.4456 15.2134ZM22.4456 19.7786C21.8163 19.7786 21.3043 19.2666 21.3043 18.6373C21.3043 18.008 21.8163 17.496 22.4456 17.496C23.075 17.496 23.587 18.008 23.587 18.6373C23.5869 19.2667 23.075 19.7786 22.4456 19.7786Z" fill="white"/>
<path d="M31.5761 15.2134H29.6629C28.3784 12.5167 25.6263 10.6482 22.4457 10.6482C19.2651 10.6482 16.513 12.5167 15.2284 15.2134H3.42392C1.53597 15.2134 0 16.7494 0 18.6374V27.7678C0 29.6557 1.53597 31.1917 3.42392 31.1917H4.56524V32.333C4.56524 32.9633 5.07623 33.4743 5.70657 33.4743C6.33691 33.4743 6.8479 32.9634 6.8479 32.333V31.1917H28.1522V32.333C28.1522 32.9633 28.6632 33.4743 29.2936 33.4743C29.9239 33.4743 30.4349 32.9634 30.4349 32.333V31.1917H31.5762C33.4642 31.1917 35.0001 29.6557 35.0001 27.7678V18.6374C35 16.7493 33.464 15.2134 31.5761 15.2134ZM22.4457 12.9308C25.5922 12.9308 28.1522 15.4907 28.1522 18.6373C28.1522 21.7839 25.5922 24.3438 22.4457 24.3438C19.2991 24.3438 16.7392 21.7839 16.7392 18.6373C16.7392 15.4908 19.2991 12.9308 22.4457 12.9308ZM32.7174 27.7678C32.7174 28.3971 32.2054 28.9091 31.5761 28.9091H3.42392C2.7946 28.9091 2.28259 28.3971 2.28259 27.7678V18.6374C2.28259 18.008 2.7946 17.4884 3.42392 17.4884H14.5384C14.4848 17.8613 14.4565 18.2498 14.4565 18.6374C14.4565 23.0426 18.0404 26.6265 22.4457 26.6265C26.8509 26.6265 30.4348 23.0426 30.4348 18.6374C30.4348 18.2498 30.4065 17.8689 30.3529 17.496H31.5761C32.2054 17.496 32.7174 18.008 32.7174 18.6374V27.7678V27.7678Z" fill="white"/>
<path d="M11.0326 19.7786H5.70651C5.07624 19.7786 4.56519 20.2896 4.56519 20.92C4.56519 21.5502 5.07617 22.0613 5.70651 22.0613H11.0326C11.6629 22.0613 12.1739 21.5503 12.1739 20.92C12.1739 20.2897 11.6629 19.7786 11.0326 19.7786Z" fill="white"/>
<path d="M11.0326 24.3439H5.70651C5.07624 24.3439 4.56519 24.8549 4.56519 25.4852C4.56519 26.1155 5.07617 26.6265 5.70651 26.6265H11.0326C11.6629 26.6265 12.1739 26.1155 12.1739 25.4852C12.1739 24.8549 11.6629 24.3439 11.0326 24.3439Z" fill="white"/>
</g>
<defs>
<clipPath id="clip0">
<rect width="35" height="35" fill="white"/>
</clipPath>
</defs>
</svg>
