<svg width="35" height="35" viewBox="0 0 35 35" fill="none" xmlns="http://www.w3.org/2000/svg">
<path d="M17.0823 6.21011H21.886C22.4523 6.21011 22.9114 5.75101 22.9114 5.18472C22.9114 4.61843 22.4523 4.15933 21.886 4.15933H17.0823C16.516 4.15933 16.0569 4.61843 16.0569 5.18472C16.0569 5.75101 16.5159 6.21011 17.0823 6.21011Z" fill="white"/>
<path d="M17.0823 10.3214H26.5993C27.1656 10.3214 27.6247 9.86228 27.6247 9.29599C27.6247 8.7297 27.1656 8.2706 26.5993 8.2706H17.0823C16.516 8.2706 16.0569 8.7297 16.0569 9.29599C16.0569 9.86228 16.5159 10.3214 17.0823 10.3214V10.3214Z" fill="white"/>
<path d="M31.9922 13.5425V1.89451C31.9922 0.849912 31.1423 0 30.0977 0H13.584C12.5394 0 11.6895 0.849912 11.6895 1.89451V13.5425C10.9161 13.7001 10.229 14.0965 9.70703 14.6501C9.02098 13.9224 8.04932 13.4668 6.97266 13.4668H3.75977C1.68663 13.4668 0 15.1534 0 17.2266V31.2402C0 33.3134 1.68663 35 3.75977 35H6.97266C8.04932 35 9.02098 34.5444 9.70703 33.8167C10.3931 34.5444 11.3647 35 12.4414 35H31.2402C33.3134 35 35 33.3134 35 31.2402V17.2266C35 15.4109 33.7062 13.8918 31.9922 13.5425ZM29.9414 2.05078V13.4668H13.7402V2.05078H29.9414ZM8.68164 31.2402C8.68164 32.1826 7.91499 32.9492 6.97266 32.9492H3.75977C2.81743 32.9492 2.05078 32.1826 2.05078 31.2402V17.2266C2.05078 16.2842 2.81743 15.5176 3.75977 15.5176H6.97266C7.91499 15.5176 8.68164 16.2842 8.68164 17.2266V31.2402ZM32.9492 31.2402C32.9492 32.1826 32.1826 32.9492 31.2402 32.9492H12.4414C11.4991 32.9492 10.7324 32.1826 10.7324 31.2402V17.2266C10.7324 16.2842 11.4991 15.5176 12.4414 15.5176H31.2402C32.1826 15.5176 32.9492 16.2842 32.9492 17.2266V31.2402Z" fill="white"/>
<path d="M17.0557 19.1064H15.6885C15.1222 19.1064 14.6631 19.5655 14.6631 20.1318C14.6631 20.6981 15.1222 21.1572 15.6885 21.1572H17.0557C17.622 21.1572 18.0811 20.6981 18.0811 20.1318C18.0811 19.5655 17.622 19.1064 17.0557 19.1064Z" fill="white"/>
<path d="M22.5244 19.1064H21.1572C20.5909 19.1064 20.1318 19.5655 20.1318 20.1318C20.1318 20.6981 20.5909 21.1572 21.1572 21.1572H22.5244C23.0907 21.1572 23.5498 20.6981 23.5498 20.1318C23.5498 19.5655 23.0907 19.1064 22.5244 19.1064Z" fill="white"/>
<path d="M27.9932 19.1064H26.626C26.0597 19.1064 25.6006 19.5655 25.6006 20.1318C25.6006 20.6981 26.0597 21.1572 26.626 21.1572H27.9932C28.5595 21.1572 29.0186 20.6981 29.0186 20.1318C29.0186 19.5655 28.5595 19.1064 27.9932 19.1064Z" fill="white"/>
<path d="M17.0557 23.208H15.6885C15.1222 23.208 14.6631 23.6671 14.6631 24.2334C14.6631 24.7997 15.1222 25.2588 15.6885 25.2588H17.0557C17.622 25.2588 18.0811 24.7997 18.0811 24.2334C18.0811 23.6671 17.622 23.208 17.0557 23.208Z" fill="white"/>
<path d="M22.5244 23.208H21.1572C20.5909 23.208 20.1318 23.6671 20.1318 24.2334C20.1318 24.7997 20.5909 25.2588 21.1572 25.2588H22.5244C23.0907 25.2588 23.5498 24.7997 23.5498 24.2334C23.5498 23.6671 23.0907 23.208 22.5244 23.208Z" fill="white"/>
<path d="M27.9932 23.208H26.626C26.0597 23.208 25.6006 23.6671 25.6006 24.2334C25.6006 24.7997 26.0597 25.2588 26.626 25.2588H27.9932C28.5595 25.2588 29.0186 24.7997 29.0186 24.2334C29.0186 23.6671 28.5595 23.208 27.9932 23.208Z" fill="white"/>
<path d="M17.0557 27.3096H15.6885C15.1222 27.3096 14.6631 27.7687 14.6631 28.335C14.6631 28.9013 15.1222 29.3604 15.6885 29.3604H17.0557C17.622 29.3604 18.0811 28.9013 18.0811 28.335C18.0811 27.7687 17.622 27.3096 17.0557 27.3096Z" fill="white"/>
<path d="M22.5244 27.3096H21.1572C20.5909 27.3096 20.1318 27.7687 20.1318 28.335C20.1318 28.9013 20.5909 29.3604 21.1572 29.3604H22.5244C23.0907 29.3604 23.5498 28.9013 23.5498 28.335C23.5498 27.7687 23.0907 27.3096 22.5244 27.3096Z" fill="white"/>
<path d="M27.9932 27.3096H26.626C26.0597 27.3096 25.6006 27.7687 25.6006 28.335C25.6006 28.9013 26.0597 29.3604 26.626 29.3604H27.9932C28.5595 29.3604 29.0186 28.9013 29.0186 28.335C29.0186 27.7687 28.5595 27.3096 27.9932 27.3096Z" fill="white"/>
</svg>
